<?xml version="1.0" standalone="no"?>
<!DOCTYPE svg PUBLIC "-//W3C//DTD SVG 20010904//EN"
 "http://www.w3.org/TR/2001/REC-SVG-20010904/DTD/svg10.dtd">
<svg version="1.0" xmlns="http://www.w3.org/2000/svg"
 width="800.000000pt" height="684.000000pt" viewBox="0 0 800.000000 684.000000"
 preserveAspectRatio="xMidYMid meet">

<g transform="translate(0.000000,684.000000) scale(0.100000,-0.100000)"
fill="#000000" stroke="none">
<path d="M3600 5780 l0 -390 -185 0 -185 0 0 -930 0 -930 -442 -2 -443 -3 -3
-797 -2 -798 905 0 905 0 0 1730 0 1730 -187 2 -188 3 -3 388 -2 387 -85 0
-85 0 0 -390z m310 -785 l0 -105 -220 0 -220 0 0 105 0 105 220 0 220 0 0
-105z m-2 -407 l3 -108 -221 0 -220 0 0 110 0 110 218 -2 217 -3 3 -107z m0
-405 l-3 -108 -217 -3 -218 -2 0 110 0 110 220 0 221 0 -3 -107z m0 -405 l3
-108 -221 0 -220 0 0 103 c0 57 3 107 7 111 4 3 102 5 217 4 l211 -3 3 -107z
m2 -603 l0 -105 -670 0 -670 0 0 105 0 105 670 0 670 0 0 -105z m-2 -427 l3
-108 -671 0 -670 0 0 110 0 110 668 -2 667 -3 3 -107z m0 -430 l3 -108 -671 0
-670 0 0 110 0 110 668 -2 667 -3 3 -107z"/>
<path d="M4680 4935 l0 -455 -190 0 -190 0 0 -1275 0 -1275 675 0 675 0 0 800
0 800 -215 0 -215 0 0 475 0 475 -185 0 -185 0 -2 453 -3 452 -82 3 -83 3 0
-456z m300 -755 l0 -110 -217 2 -218 3 -3 108 -3 107 221 0 220 0 0 -110z m0
-400 l0 -110 -220 0 -220 0 0 103 c0 57 3 107 7 110 3 4 102 7 220 7 l213 0 0
-110z m450 -605 l0 -105 -445 0 -445 0 0 105 0 105 445 0 445 0 0 -105z m-2
-427 l3 -108 -446 0 -445 0 0 103 c0 57 3 107 7 110 3 4 203 6 442 5 l436 -3
3 -107z m0 -430 l3 -108 -446 0 -445 0 0 110 0 110 443 -2 442 -3 3 -107z"/>
<path d="M1570 1285 l0 -275 35 0 35 0 0 245 0 245 98 0 c121 0 142 -11 142
-75 0 -36 -5 -47 -31 -69 -17 -15 -51 -32 -75 -38 -66 -18 -61 -41 43 -186
l86 -122 44 0 c23 0 43 2 43 5 0 5 -138 198 -173 242 -6 9 -1 16 19 24 43 16
92 56 109 89 22 43 19 102 -7 135 -36 46 -73 55 -228 55 l-140 0 0 -275z"/>
<path d="M2070 1285 l0 -275 181 2 182 3 3 28 3 27 -150 0 -149 0 0 95 0 95
141 0 140 0 -3 28 -3 27 -137 3 -138 3 0 89 0 90 145 0 145 0 0 30 0 30 -180
0 -180 0 0 -275z"/>
<path d="M2716 1552 c-8 -13 -213 -497 -221 -520 -6 -22 -4 -23 30 -20 l36 3
70 170 c38 94 81 199 96 234 l26 63 15 -27 c20 -38 82 -194 82 -206 0 -5 -29
-9 -65 -9 -59 0 -67 -2 -74 -22 -5 -13 -7 -26 -4 -30 2 -5 43 -8 91 -8 l87 0
33 -85 34 -85 40 0 c28 0 39 4 35 13 -16 40 -191 450 -209 490 -20 44 -24 47
-59 47 -21 0 -40 -3 -43 -8z"/>
<path d="M3105 1447 c-4 -63 -5 -185 -3 -273 l4 -159 177 -3 177 -2 0 30 0 30
-140 0 -140 0 0 245 0 245 -34 0 -34 0 -7 -113z"/>
<path d="M3740 1285 l0 -275 180 0 180 0 0 30 0 30 -145 0 -145 0 0 95 0 95
135 0 135 0 0 30 0 30 -135 0 -135 0 0 90 0 90 145 0 145 0 0 30 0 30 -180 0
-180 0 0 -275z"/>
<path d="M4278 1546 c-88 -39 -122 -145 -71 -224 29 -46 71 -62 163 -62 48 0
96 -6 110 -13 62 -31 66 -121 7 -158 -28 -18 -44 -20 -132 -15 -55 3 -112 8
-127 12 -26 6 -28 4 -28 -24 0 -29 3 -31 56 -42 84 -18 220 -10 268 16 55 28
78 74 73 147 -6 100 -62 137 -209 137 -65 0 -81 3 -103 23 -43 36 -35 116 13
141 56 28 146 28 255 1 27 -7 28 -6 25 26 -2 29 -8 35 -33 40 -53 11 -239 8
-267 -5z"/>
<path d="M4660 1530 l0 -30 85 0 85 0 0 -245 0 -245 35 0 35 0 0 245 0 245 83
0 c46 0 86 2 89 5 3 3 3 17 0 30 l-4 25 -204 0 -204 0 0 -30z"/>
<path d="M5270 1551 c0 -5 -49 -125 -110 -267 -60 -142 -110 -262 -110 -266 0
-4 15 -8 34 -8 38 0 24 -27 147 275 40 99 76 184 80 188 6 8 99 -200 99 -223
0 -6 -27 -10 -66 -10 -57 0 -67 -3 -71 -20 -9 -33 -6 -35 84 -40 l88 -5 34
-82 34 -83 39 0 c22 0 38 4 36 9 -1 4 -54 128 -117 275 l-114 266 -43 0 c-24
0 -44 -4 -44 -9z"/>
<path d="M5560 1530 l0 -30 85 0 85 0 0 -246 0 -245 36 3 36 3 1 240 2 240 88
3 87 3 0 29 0 30 -210 0 -210 0 0 -30z"/>
<path d="M6060 1285 l0 -275 185 0 185 0 0 30 0 30 -150 0 -150 0 0 95 0 95
140 0 140 0 0 30 0 30 -140 0 -140 0 0 90 0 90 145 0 145 0 0 30 0 30 -180 0
-180 0 0 -275z"/>
<path d="M2250 720 l0 -80 45 0 c25 0 45 5 45 10 0 6 -13 10 -30 10 l-30 0 0
70 c0 56 -3 70 -15 70 -12 0 -15 -16 -15 -80z"/>
<path d="M2612 777 c-30 -32 -29 -87 1 -115 35 -33 99 -30 126 4 12 15 21 39
21 54 0 15 -9 39 -21 54 -28 35 -95 37 -127 3z m96 -13 c26 -18 29 -60 5 -86
-29 -33 -82 -17 -97 29 -5 17 -1 29 18 48 29 29 43 31 74 9z"/>
<path d="M3040 780 c-28 -28 -34 -63 -16 -98 35 -67 146 -61 146 9 0 27 -3 29
-40 29 -22 0 -40 -4 -40 -10 0 -5 11 -10 25 -10 28 0 34 -24 9 -34 -27 -10
-43 -7 -64 14 -26 26 -25 55 1 81 16 16 28 19 54 15 35 -7 57 7 29 18 -33 13
-84 6 -104 -14z"/>
<path d="M3441 774 c-67 -85 50 -187 127 -111 55 55 16 137 -64 137 -34 0 -47
-5 -63 -26z m117 -22 c15 -20 7 -62 -15 -79 -39 -30 -93 -1 -93 48 0 54 74 75
108 31z"/>
<path d="M3840 720 l0 -80 49 0 c43 0 53 4 76 32 30 36 28 68 -7 106 -17 17
-33 22 -70 22 l-48 0 0 -80z m83 49 c27 -14 37 -28 37 -51 0 -26 -36 -58 -65
-58 -24 0 -25 3 -25 53 0 70 9 79 53 56z"/>
<path d="M4240 720 l0 -80 45 0 c52 0 61 17 13 22 -25 2 -33 8 -33 23 0 15 8
21 33 23 17 2 32 7 32 12 0 5 -15 10 -32 12 -25 2 -33 8 -33 23 0 15 8 21 33
23 48 5 39 22 -13 22 l-45 0 0 -80z"/>
<path d="M4592 788 c-23 -23 -14 -55 23 -77 44 -26 39 -56 -7 -45 -23 5 -29 3
-26 -7 3 -8 17 -15 32 -17 59 -7 79 56 26 86 -39 22 -42 55 -4 46 20 -5 25 -3
22 7 -6 18 -50 23 -66 7z"/>
<path d="M4920 720 c0 -64 3 -80 15 -80 12 0 15 16 15 80 0 64 -3 80 -15 80
-12 0 -15 -16 -15 -80z"/>
<path d="M5229 781 c-28 -23 -33 -91 -8 -116 25 -26 72 -34 107 -19 26 11 32
19 32 44 0 28 -2 30 -40 30 -22 0 -40 -4 -40 -10 0 -5 12 -10 26 -10 19 0 25
-5 22 -17 -4 -24 -43 -28 -74 -9 -52 35 -13 114 51 102 35 -7 57 7 29 18 -31
12 -82 6 -105 -13z"/>
<path d="M5610 720 c0 -64 3 -80 15 -80 12 0 15 13 15 58 l0 57 38 -57 c21
-34 44 -58 55 -58 15 0 17 10 17 80 0 63 -3 80 -15 80 -10 0 -15 -15 -17 -57
l-3 -58 -35 57 c-21 34 -42 58 -52 58 -16 0 -18 -10 -18 -80z"/>
</g>
</svg>
