<?xml version="1.0" standalone="no"?>
<!DOCTYPE svg PUBLIC "-//W3C//DTD SVG 20010904//EN"
 "http://www.w3.org/TR/2001/REC-SVG-20010904/DTD/svg10.dtd">
<svg version="1.0" xmlns="http://www.w3.org/2000/svg"
 width="480.000000pt" height="252.000000pt" viewBox="0 0 480.000000 252.000000"
 preserveAspectRatio="xMidYMid meet">

<g transform="translate(0.000000,252.000000) scale(0.100000,-0.100000)"
fill="#808080" stroke="none">
<path d="M2545 2058 c-10 -25 -75 -222 -75 -225 0 -2 29 -3 65 -3 l65 0 0
-130 c0 -122 -1 -130 -19 -130 -11 0 -23 -4 -26 -10 -8 -13 -265 -13 -265 -1
0 6 5 13 10 16 6 3 10 24 10 45 0 21 -4 42 -10 45 -5 3 -10 17 -10 31 0 15 -6
24 -16 24 -10 0 -14 6 -11 14 3 8 9 31 13 52 4 21 18 47 32 59 21 18 23 24 13
43 -6 12 -21 22 -32 22 -11 0 -33 10 -49 22 -41 30 -78 17 -105 -37 -11 -22
-28 -46 -37 -53 -27 -20 -22 -49 12 -74 31 -23 40 -48 16 -48 -22 0 -39 -115
-23 -151 6 -12 0 -16 -35 -18 -24 -1 -47 -6 -51 -10 -15 -15 -3 -56 20 -66 12
-5 26 -19 32 -32 6 -13 17 -23 26 -23 18 0 18 -2 1 -67 l-14 -53 28 0 c23 0
34 10 66 60 l39 60 211 0 212 0 38 -60 c32 -49 44 -60 67 -60 31 0 31 -1 13
67 -14 50 -13 52 8 55 11 2 25 13 31 25 5 12 19 24 31 27 27 7 37 31 24 57 -9
16 -22 19 -90 19 -43 0 -82 5 -85 10 -3 6 -17 10 -31 10 l-24 0 0 130 0 130
66 0 c58 0 65 2 60 18 -4 10 -21 63 -39 117 l-34 100 -61 3 c-44 2 -64 -1 -67
-10z m-325 -154 c11 -28 14 -143 4 -168 -3 -9 -14 -16 -24 -16 -29 0 -40 98
-19 173 12 43 26 47 39 11z m42 -76 c-1 -28 -3 -53 -6 -56 -3 -3 -6 17 -6 44
0 27 -3 60 -6 74 -5 22 -4 23 6 7 7 -10 12 -41 12 -69z m-111 11 c-9 -53 -9
-54 -10 -12 0 23 2 49 5 58 12 30 14 8 5 -46z m157 34 c-5 -25 -28 -28 -28 -4
0 12 6 21 16 21 9 0 14 -7 12 -17z m-185 -65 c7 -25 3 -33 -12 -23 -13 8 -15
45 -2 45 5 0 11 -10 14 -22z m144 -115 c4 -10 -14 -13 -66 -13 -64 0 -82 6
-66 22 12 11 128 3 132 -9z m20 -49 c34 -46 -5 -84 -84 -84 -65 0 -93 18 -93
60 0 40 13 46 92 43 56 -1 75 -6 85 -19z m503 -183 c0 -29 -34 -31 -366 -29
-313 3 -339 4 -342 21 -3 16 19 17 352 17 198 0 356 -4 356 -9z m-626 -96
c-35 -53 -71 -75 -60 -37 3 9 8 34 12 55 6 35 8 37 45 37 l39 0 -36 -55z m575
11 c14 -57 14 -66 -1 -66 -11 0 -78 91 -78 105 0 3 15 5 34 5 31 0 34 -3 45
-44z"/>
<path d="M1410 1953 c-94 -9 -243 -37 -312 -59 -128 -41 -138 -70 -89 -259 33
-131 55 -176 113 -232 93 -91 371 -141 541 -97 82 21 189 77 242 125 66 60 79
105 73 243 -8 176 -48 237 -179 272 -50 13 -287 17 -389 7z m370 -42 c75 -23
115 -56 141 -116 22 -50 34 -140 25 -189 l-7 -35 -32 19 c-54 31 -135 50 -251
56 -61 4 -109 4 -106 1 3 -3 59 -10 125 -16 138 -13 179 -22 226 -54 39 -26
46 -49 27 -85 -31 -59 -240 -163 -329 -164 -86 0 -129 46 -149 161 -19 116
-50 198 -91 245 -47 53 -90 72 -189 80 -148 14 -161 23 -76 55 178 67 537 89
686 42z"/>
<path d="M3070 1950 c-69 -15 -130 -58 -158 -113 -34 -64 -44 -253 -18 -321
31 -82 165 -175 303 -211 113 -29 287 -15 439 35 68 23 133 79 167 145 26 51
77 248 77 297 0 75 -62 110 -271 149 -128 23 -461 35 -539 19z m521 -39 c117
-20 229 -55 229 -71 0 -10 -29 -15 -125 -25 -96 -9 -136 -26 -185 -75 -50 -49
-66 -90 -98 -242 -28 -131 -61 -169 -150 -170 -58 0 -171 44 -259 101 -92 59
-106 107 -44 148 47 32 88 41 226 54 66 6 122 13 125 16 3 3 -45 3 -106 -1
-116 -6 -197 -25 -251 -56 l-32 -19 -7 45 c-3 24 -3 65 1 91 20 139 91 201
255 224 84 12 292 2 421 -20z"/>
<path d="M750 780 l0 -150 30 0 c30 0 30 0 30 60 l0 59 63 3 c59 3 62 4 62 28
0 24 -3 25 -63 28 l-63 3 3 32 3 32 73 3 c69 3 73 4 70 25 -3 21 -8 22 -105
25 l-103 3 0 -151z"/>
<path d="M1121 805 c4 -119 5 -126 30 -151 52 -51 176 -38 199 21 6 15 10 78
10 141 l0 114 -30 0 -30 0 0 -115 c0 -110 -1 -115 -24 -130 -32 -21 -75 -10
-87 22 -5 13 -9 69 -9 124 l0 99 -31 0 -31 0 3 -125z"/>
<path d="M1540 781 l0 -151 30 0 30 0 0 60 c0 57 1 60 24 60 25 0 59 -34 93
-90 14 -25 24 -30 55 -30 l38 0 -26 43 c-15 23 -36 52 -47 64 l-20 22 26 12
c50 23 58 97 15 135 -15 14 -41 19 -119 22 l-99 4 0 -151z m161 89 c23 -13 25
-55 3 -64 -9 -3 -36 -6 -60 -6 -43 0 -44 1 -44 33 0 19 3 37 7 40 10 11 72 8
94 -3z"/>
<path d="M1960 780 l0 -150 30 0 29 0 3 91 3 91 55 -91 c51 -85 57 -91 88 -91
l32 0 0 150 0 150 -30 0 -29 0 -3 -96 -3 -95 -58 95 c-53 86 -62 96 -88 96
l-29 0 0 -150z"/>
<path d="M2380 780 l0 -150 30 0 30 0 0 150 0 150 -30 0 -30 0 0 -150z"/>
<path d="M2590 906 c0 -22 5 -25 43 -28 l42 -3 3 -122 3 -123 29 0 30 0 0 125
0 125 45 0 c41 0 45 2 45 25 l0 25 -120 0 -120 0 0 -24z"/>
<path d="M2984 915 c-4 -8 -5 -62 -2 -120 3 -86 7 -109 24 -132 42 -57 171
-52 201 7 8 16 13 69 13 143 l0 117 -30 0 -30 0 0 -115 c0 -111 -1 -115 -25
-131 -21 -14 -30 -14 -54 -4 -35 14 -41 38 -41 161 0 89 0 89 -25 89 -14 0
-28 -7 -31 -15z"/>
<path d="M3400 781 l0 -151 30 0 30 0 0 60 c0 57 1 60 24 60 25 0 59 -34 93
-90 14 -25 24 -30 56 -30 l38 0 -18 31 c-10 17 -30 45 -44 62 l-26 31 35 33
c30 28 34 37 28 65 -12 60 -34 72 -146 76 l-100 4 0 -151z m168 87 c17 -17 15
-55 -4 -62 -9 -3 -36 -6 -60 -6 -43 0 -44 1 -44 33 0 19 3 37 7 40 11 12 88 8
101 -5z"/>
<path d="M3820 780 l0 -150 115 0 115 0 0 25 c0 25 -1 25 -85 25 l-85 0 0 40
0 40 75 0 c73 0 75 1 75 25 0 24 -2 25 -76 25 l-75 0 3 33 3 32 78 3 c74 3 77
4 77 27 l0 25 -110 0 -110 0 0 -150z"/>
<path d="M1664 430 c3 -14 6 -33 6 -42 0 -28 14 -21 30 15 7 17 15 37 18 42 2
6 -4 2 -14 -7 -16 -16 -18 -16 -31 0 -13 15 -14 15 -9 -8z"/>
<path d="M1765 434 c-25 -25 -15 -58 18 -62 21 -3 29 2 36 20 17 46 -20 75
-54 42z m45 -13 c0 -21 -13 -41 -26 -41 -8 0 -14 10 -14 25 0 18 5 25 20 25
11 0 20 -4 20 -9z"/>
<path d="M1875 438 c-13 -41 -8 -68 13 -68 27 0 42 20 41 55 l-1 30 -12 -34
c-18 -50 -41 -55 -32 -7 7 34 0 51 -9 24z"/>
<path d="M1976 428 c-3 -13 -6 -32 -6 -43 1 -19 1 -19 14 -2 16 21 26 22 26 2
0 -8 5 -15 10 -15 6 0 10 6 9 13 -1 6 1 20 6 31 5 12 3 21 -6 27 -24 15 -46
10 -53 -13z m44 -8 c0 -5 -7 -10 -15 -10 -8 0 -15 5 -15 10 0 6 7 10 15 10 8
0 15 -4 15 -10z"/>
<path d="M2121 436 c-10 -12 -9 -17 8 -28 27 -16 27 -32 1 -25 -11 3 -20 1
-20 -4 0 -5 11 -9 25 -9 30 0 34 26 8 47 -17 13 -16 14 5 10 15 -4 22 -1 19 6
-6 18 -32 20 -46 3z"/>
<path d="M2212 410 l-10 -40 32 1 c22 1 25 3 9 6 -19 4 -21 9 -16 39 8 47 -2
43 -15 -6z"/>
<path d="M2315 434 c-24 -25 -15 -58 17 -62 34 -4 54 27 38 58 -13 24 -33 26
-55 4z m45 -13 c0 -21 -13 -41 -26 -41 -14 0 -19 31 -7 43 10 10 33 8 33 -2z"/>
<path d="M2425 426 c-8 -13 -13 -31 -9 -40 9 -23 51 -20 64 4 9 17 8 20 -12
20 -17 0 -19 -3 -9 -9 10 -6 10 -10 1 -16 -16 -10 -34 10 -26 30 5 13 13 15
33 10 23 -5 25 -4 14 9 -19 23 -38 20 -56 -8z"/>
<path d="M2540 418 c-24 -39 -26 -55 -5 -38 12 10 19 10 27 2 20 -20 24 -14
20 23 -6 48 -18 52 -42 13z m25 -8 c3 -5 1 -10 -4 -10 -6 0 -11 5 -11 10 0 6
2 10 4 10 3 0 8 -4 11 -10z"/>
<path d="M2637 433 c-3 -10 -8 -28 -12 -40 -4 -14 -2 -23 4 -23 6 0 11 10 11
23 l0 22 20 -25 c20 -27 22 -25 35 33 4 19 2 26 -5 22 -5 -3 -10 -13 -10 -21
0 -8 -4 -14 -10 -14 -5 0 -10 6 -10 14 0 22 -18 29 -23 9z"/>
<path d="M2778 445 c-13 -22 -19 -75 -9 -75 6 0 11 7 11 15 0 8 7 15 16 15 10
0 14 -6 10 -15 -3 -8 -1 -15 3 -15 12 0 21 27 20 58 -1 17 -3 21 -6 10 -2 -10
-11 -18 -18 -18 -7 0 -15 8 -17 18 -2 9 -6 13 -10 7z"/>
<path d="M2876 428 c-12 -48 -8 -58 27 -57 23 1 26 3 10 6 -28 5 -30 23 -3 23
27 0 25 18 -2 23 l-23 4 23 2 c30 1 28 21 -2 21 -16 0 -26 -7 -30 -22z"/>
<path d="M2980 424 c-6 -14 -10 -33 -10 -42 1 -15 3 -15 15 2 15 20 15 20 31
0 12 -14 14 -15 11 -3 -3 9 -1 21 5 27 16 16 2 42 -22 42 -13 0 -24 -10 -30
-26z m40 -4 c0 -5 -7 -10 -15 -10 -8 0 -15 5 -15 10 0 6 7 10 15 10 8 0 15 -4
15 -10z"/>
<path d="M3084 423 c-3 -16 -7 -34 -10 -40 -2 -9 7 -13 29 -12 23 1 26 3 10 6
-32 6 -29 21 5 25 l27 4 -25 11 c-24 11 -24 12 -2 12 30 1 28 21 -3 21 -19 0
-26 -7 -31 -27z"/>
</g>
</svg>
